<svg xmlns="http://www.w3.org/2000/svg" version="1.1" xmlns:xlink="http://www.w3.org/1999/xlink" xmlns:svgjs="http://svgjs.com/svgjs" width="1400" height="5000" preserveAspectRatio="none" viewBox="0 0 1400 5000"><g mask="url(&quot;#SvgjsMask2622&quot;)" fill="none"><rect width="1400" height="5000" x="0" y="0" fill="url(#SvgjsLinearGradient2623)"></rect><path d="M100.04 3215.39 a33.87 33.87 0 1 0 67.74 0 a33.87 33.87 0 1 0 -67.74 0z" fill="#d3b714"></path><path d="M1056.83 1242.89L1189.34 1242.89L1189.34 1375.4L1056.83 1375.4z" stroke="#037b0b"></path><path d="M360.27 4958.32L467.98 4958.32L467.98 4999.43L360.27 4999.43z" stroke="#037b0b"></path><path d="M657.27 823.28L794.31 823.28L794.31 960.32L657.27 960.32z" fill="#d3b714"></path><path d="M765.15 1571.18L836.84 1571.18L836.84 1642.87L765.15 1642.87z" fill="#e73635"></path><path d="M94.96 1568.42L121.08 1568.42L121.08 1679.84L94.96 1679.84z" fill="#037b0b"></path><path d="M31.37 2917.67a7.63 7.63 0 1 0-0.23 15.26z" fill="#037b0b"></path><path d="M211.46 1805.96L327.49 1805.96L327.49 1868L211.46 1868z" fill="#d3b714"></path><path d="M644.54 1625.32 a107.67 107.67 0 1 0 215.34 0 a107.67 107.67 0 1 0 -215.34 0z" fill="#e73635"></path><path d="M84.99 4102.3a87.49 87.49 0 1 0 66.09-162.01z" stroke="#037b0b"></path><path d="M291.18 5006.77a88.04 88.04 0 1 0-172.43-35.66z" stroke="#d3b714"></path><path d="M188.74 665.36 a18.38 18.38 0 1 0 36.76 0 a18.38 18.38 0 1 0 -36.76 0z" stroke="#037b0b"></path><path d="M326.86 2409.39a106.9 106.9 0 1 0 142.18 159.67z" stroke="#037b0b"></path><path d="M694.28 3878.4 a116.06 116.06 0 1 0 232.12 0 a116.06 116.06 0 1 0 -232.12 0z" fill="#d3b714"></path><path d="M772.48 3418.82L865.34 3418.82L865.34 3511.68L772.48 3511.68z" stroke="#037b0b"></path><path d="M486.05 3840.48 a70.14 70.14 0 1 0 140.28 0 a70.14 70.14 0 1 0 -140.28 0z" fill="#e73635"></path><path d="M642.57 3141a63.45 63.45 0 1 0-126.87 2.69z" fill="#d3b714"></path><path d="M383.41 438.67L448.11 438.67L448.11 484.31L383.41 484.31z" stroke="#e73635"></path><path d="M482.3 1163.1L563.92 1163.1L563.92 1212.04L482.3 1212.04z" fill="#e73635"></path><path d="M1292.28 2507.27 a10.03 10.03 0 1 0 20.06 0 a10.03 10.03 0 1 0 -20.06 0z" stroke="#037b0b"></path><path d="M667.47 152.15a21.25 21.25 0 1 0 14.87 39.81z" stroke="#d3b714"></path><path d="M361.85 708.18L483.13 708.18L483.13 829.46L361.85 829.46z" fill="#e73635"></path><path d="M467.82 3931.57L536.89 3931.57L536.89 4000.64L467.82 4000.64z" stroke="#037b0b"></path><path d="M589.66 1002.26L706.02 1002.26L706.02 1023.6L589.66 1023.6z" stroke="#037b0b"></path><path d="M506.51 1715.53 a96.52 96.52 0 1 0 193.04 0 a96.52 96.52 0 1 0 -193.04 0z" fill="#e73635"></path><path d="M757.22 3073.97 a74.33 74.33 0 1 0 148.66 0 a74.33 74.33 0 1 0 -148.66 0z" fill="#037b0b"></path><path d="M489.33 2398.77a14.88 14.88 0 1 0 11.04 27.64z" fill="#e73635"></path><path d="M436.78 440.06L514.43 440.06L514.43 517.71L436.78 517.71z" fill="#d3b714"></path><path d="M93.44 778.93L194.96 778.93L194.96 835.28L93.44 835.28z" stroke="#037b0b"></path><path d="M731.99 4537.02a50.08 50.08 0 1 0 98.4-18.68z" stroke="#e73635"></path><path d="M112.35 3345.01L175.46 3345.01L175.46 3408.12L112.35 3408.12z" fill="#037b0b"></path><path d="M848.35 1330.51a65.46 65.46 0 1 0 95.46-89.6z" fill="#e73635"></path><path d="M301.37 2981.5L403.6 2981.5L403.6 2987.98L301.37 2987.98z" stroke="#d3b714"></path><path d="M261 4051.9a138.16 138.16 0 1 0 219.9 167.32z" fill="#d3b714"></path><path d="M1074.86 3887.21L1144.91 3887.21L1144.91 3941.45L1074.86 3941.45z" fill="#037b0b"></path><path d="M1313.73 1382.27a92.01 92.01 0 1 0 82.76 164.36z" fill="#037b0b"></path><path d="M811.62 402.12a13.36 13.36 0 1 0 5.96 26.05z" stroke="#e73635"></path><path d="M608.81 279.58 a41.8 41.8 0 1 0 83.6 0 a41.8 41.8 0 1 0 -83.6 0z" stroke="#e73635"></path><path d="M856.59 358.84L980.18 358.84L980.18 423.99L856.59 423.99z" stroke="#037b0b"></path><path d="M1083.62 2219.12L1173.74 2219.12L1173.74 2309.24L1083.62 2309.24z" stroke="#e73635"></path><path d="M1235.54 423.23L1341.23 423.23L1341.23 553.83L1235.54 553.83z" stroke="#e73635"></path><path d="M912.12 3962.15L987.57 3962.15L987.57 4072.39L912.12 4072.39z" stroke="#e73635"></path><path d="M724.84 4924.87a81.28 81.28 0 1 0-36.14-158.49z" fill="#037b0b"></path><path d="M318.18 2413.3L430.85 2413.3L430.85 2525.97L318.18 2525.97z" fill="#d3b714"></path><path d="M791.88 4345.36a95.28 95.28 0 1 0 156.84-108.25z" fill="#d3b714"></path></g><defs><mask id="SvgjsMask2622"><rect width="1400" height="5000" fill="#ffffff"></rect></mask><linearGradient x1="-64.29%" y1="18%" x2="164.29%" y2="82%" gradientUnits="userSpaceOnUse" id="SvgjsLinearGradient2623"><stop stop-color="#0e2a47" offset="0"></stop><stop stop-color="rgba(202, 65, 232, 1)" offset="1"></stop></linearGradient></defs></svg>