<svg xmlns="http://www.w3.org/2000/svg" version="1.1" xmlns:xlink="http://www.w3.org/1999/xlink" xmlns:svgjs="http://svgjs.com/svgjs" width="1600" height="800" preserveAspectRatio="none" viewBox="0 0 1600 800"><g mask="url(&quot;#SvgjsMask1073&quot;)" fill="none"><rect width="1600" height="800" x="0" y="0" fill="rgba(212, 216, 219, 1)"></rect><path d="M0,751.884C139.086,749.418,263.271,663.185,365.746,569.111C457.767,484.635,497.677,364.571,546.946,249.782C595.044,137.721,652.87,28.441,650.136,-93.475C647.195,-224.606,602.982,-350.471,531.026,-460.136C451.781,-580.909,363.363,-731.784,219.954,-749.094C74.155,-766.692,-19.112,-586.324,-159.585,-543.495C-297.716,-501.38,-486.817,-612.903,-582.239,-504.513C-677.42,-396.397,-570.972,-225.401,-566.367,-81.431C-562.708,32.943,-589.782,144.892,-557.951,254.808C-522.417,377.51,-469.557,497.253,-374.175,582.228C-269.808,675.208,-139.756,754.362,0,751.884" fill="#aab2b8"></path><path d="M1600 1498.525C1726.681 1475.688 1833.003 1398.162 1930.122 1313.679 2016.499 1238.54 2068.326 1139.04 2126.561 1040.473 2192.036 929.653 2281.526 828.697 2292.434 700.443 2304.675 556.519 2292.786 390.321 2190.535 288.298 2088.674 186.66499999999996 1920.567 217.063 1779.506 188.659 1652.469 163.07899999999995 1530.743 106.83600000000001 1403.2 129.75900000000001 1267.77 154.09900000000005 1125.281 207.57600000000002 1046.508 320.397 969.38 430.862 1012.236 579.41 995.875 713.14 979.947 843.333 919.191 969.016 951.605 1096.112 987.052 1235.101 1061.491 1372.658 1183.365 1448.296 1304.6770000000001 1523.585 1459.489 1523.855 1600 1498.525" fill="#fefefe"></path></g><defs><mask id="SvgjsMask1073"><rect width="1600" height="800" fill="#ffffff"></rect></mask></defs></svg>